<?xml version="1.0" standalone="no"?>
<!DOCTYPE svg PUBLIC "-//W3C//DTD SVG 20010904//EN"
 "http://www.w3.org/TR/2001/REC-SVG-20010904/DTD/svg10.dtd">
<svg version="1.0" xmlns="http://www.w3.org/2000/svg"
 width="1024.000000pt" height="1024.000000pt" viewBox="0 0 1024.000000 1024.000000"
 preserveAspectRatio="xMidYMid meet">

<g transform="translate(0.000000,1024.000000) scale(0.100000,-0.100000)"
fill="#821b46" stroke="none">
<path d="M4410 10220 c-14 -4 -48 -8 -76 -9 -50 -1 -96 -8 -249 -37 -102 -20
-314 -69 -385 -90 -117 -33 -186 -55 -205 -64 -11 -5 -65 -25 -120 -43 -55
-18 -110 -39 -122 -45 -12 -7 -27 -12 -32 -12 -21 0 -381 -175 -492 -238 -65
-37 -164 -95 -199 -115 -19 -11 -57 -33 -85 -48 -104 -58 -435 -297 -570 -413
-55 -47 -140 -119 -190 -160 -106 -88 -271 -256 -450 -461 -39 -44 -78 -89
-87 -99 -10 -11 -37 -46 -60 -79 -24 -32 -68 -91 -98 -131 -52 -66 -199 -285
-247 -366 -24 -42 -182 -344 -234 -450 -33 -67 -49 -102 -94 -205 -8 -16 -32
-82 -55 -145 -23 -63 -51 -140 -62 -170 -11 -30 -35 -107 -54 -170 -18 -63
-46 -161 -63 -217 -64 -218 -119 -523 -150 -838 -14 -141 -14 -766 0 -949 17
-233 55 -494 89 -616 5 -19 21 -84 35 -145 14 -60 30 -121 35 -135 5 -14 23
-72 41 -130 60 -199 126 -339 254 -535 156 -241 410 -523 665 -740 58 -50 118
-101 134 -115 17 -14 48 -41 70 -61 40 -35 272 -199 282 -199 3 0 25 -14 49
-30 24 -17 46 -30 48 -30 6 0 96 -51 227 -128 39 -23 400 -178 507 -218 159
-60 206 -75 353 -117 449 -128 796 -177 1264 -177 335 0 495 16 816 82 188 39
233 47 348 63 29 4 50 10 47 14 -4 3 -88 7 -188 8 -488 5 -903 69 -1377 213
-206 62 -346 111 -456 160 -268 120 -552 271 -719 383 -307 207 -505 376 -699
597 -22 25 -69 77 -105 115 -100 107 -269 336 -358 485 -119 200 -167 312
-224 515 -29 105 -136 542 -148 605 -62 323 -63 845 -2 1235 6 33 15 96 21
140 24 172 85 416 150 600 15 44 40 118 55 165 15 47 44 119 64 160 153 310
225 435 379 660 168 245 232 323 467 561 250 254 400 376 730 594 242 159 361
223 555 298 36 14 90 36 120 50 242 111 627 213 925 245 55 6 144 16 197 22
124 13 614 13 732 0 485 -54 775 -122 1116 -260 155 -62 433 -201 527 -262
122 -79 286 -182 296 -187 6 -2 -17 32 -50 75 -33 44 -91 122 -130 174 -87
117 -411 434 -567 555 -21 17 -78 62 -127 102 -74 59 -340 243 -353 243 -2 0
-52 29 -111 65 -59 36 -108 65 -110 65 -1 0 -46 20 -98 45 -53 25 -98 45 -101
45 -3 0 -31 12 -63 26 -119 52 -127 55 -223 90 -97 34 -177 62 -215 74 -49 15
-296 77 -360 90 -33 6 -79 16 -102 21 -50 11 -298 10 -333 -1z"/>
<path d="M6496 10090 c12 -5 25 -13 29 -19 3 -6 34 -30 68 -53 34 -23 87 -62
118 -87 31 -25 94 -74 140 -107 338 -247 803 -771 984 -1109 26 -49 56 -102
67 -117 10 -14 18 -29 18 -33 0 -4 8 -19 19 -33 41 -59 157 -300 188 -391 39
-115 115 -272 164 -336 29 -38 103 -133 165 -210 150 -189 263 -379 360 -605
10 -25 49 -106 85 -180 76 -157 142 -341 194 -550 9 -36 20 -81 25 -100 42
-162 87 -402 102 -540 17 -160 22 -724 8 -860 -19 -186 -75 -506 -118 -675
-47 -184 -126 -428 -175 -542 -14 -32 -34 -78 -44 -103 -28 -71 -112 -238
-160 -318 -24 -41 -43 -75 -43 -77 0 -6 -79 -133 -115 -185 -111 -162 -151
-218 -169 -241 -12 -14 -48 -59 -81 -100 -33 -41 -66 -83 -75 -93 -160 -200
-522 -523 -807 -722 -51 -35 -299 -184 -307 -184 -2 0 -46 -24 -97 -53 -52
-29 -112 -60 -134 -69 -22 -9 -74 -32 -115 -51 -188 -88 -371 -151 -675 -231
-64 -17 -228 -46 -406 -71 -97 -14 -164 -34 -349 -103 -166 -63 -618 -145
-1005 -181 -142 -14 -583 -14 -734 -1 -388 35 -605 74 -911 165 -30 9 -68 20
-85 25 -108 29 -380 131 -505 188 -36 16 -90 41 -120 55 -30 14 -84 37 -120
52 -36 15 -84 38 -107 51 -58 32 -46 7 27 -53 31 -26 98 -84 147 -128 50 -44
128 -109 174 -145 46 -35 86 -68 87 -72 2 -5 7 -8 12 -8 5 0 73 -43 152 -96
79 -53 152 -100 163 -105 11 -5 47 -24 80 -44 62 -36 313 -162 375 -188 124
-53 225 -92 309 -121 53 -18 163 -57 244 -85 82 -28 194 -63 250 -77 56 -14
118 -30 137 -35 103 -27 252 -54 485 -89 202 -31 367 -40 715 -41 336 0 415 4
660 32 256 29 446 66 675 130 183 51 246 70 290 90 11 5 83 29 160 55 77 25
181 66 232 90 50 24 97 44 104 44 12 0 113 49 184 90 22 13 105 57 185 98 318
163 550 330 910 653 195 176 261 241 347 345 32 39 90 107 128 151 97 111 98
111 215 271 117 158 194 275 265 402 27 47 58 101 70 120 36 58 230 449 263
530 90 220 237 695 273 880 4 25 15 76 23 114 17 78 39 209 56 336 6 47 15
114 21 150 38 259 38 809 -2 1115 -36 278 -114 674 -168 850 -10 33 -24 80
-31 105 -26 92 -34 117 -68 210 -57 159 -78 211 -130 320 -28 58 -64 141 -82
185 -91 233 -331 623 -599 975 -181 238 -631 684 -859 852 -31 23 -62 47 -68
52 -57 57 -352 245 -529 339 -22 12 -47 26 -55 33 -8 6 -55 32 -105 59 -49 26
-95 51 -101 56 -12 9 -226 116 -286 143 -21 9 -54 23 -73 31 -101 45 -247 95
-367 125 -42 11 -97 29 -123 40 -26 11 -52 20 -58 19 -7 0 -2 -4 9 -9z"/>
<path d="M4845 8299 c-278 -20 -431 -52 -759 -160 -115 -38 -214 -72 -220 -77
-6 -5 -42 -21 -81 -37 -83 -34 -199 -95 -273 -141 -29 -19 -54 -34 -56 -34
-17 0 -215 -134 -293 -198 -32 -26 -85 -67 -118 -92 -33 -25 -100 -83 -149
-130 -116 -111 -311 -333 -297 -338 7 -2 17 1 24 6 7 6 41 27 77 47 36 21 79
45 96 55 59 34 66 38 229 110 210 94 492 169 770 206 162 21 699 25 870 5 529
-61 905 -184 1272 -418 29 -18 55 -33 58 -33 19 0 173 -112 293 -212 142 -119
255 -238 357 -373 95 -125 305 -496 305 -537 0 -9 4 -19 9 -22 4 -3 14 -33 21
-66 7 -33 15 -58 18 -56 8 9 2 329 -9 406 -15 115 -79 409 -110 505 -88 282
-106 326 -203 515 -125 245 -241 420 -369 557 -40 43 -95 103 -122 133 -155
174 -234 237 -370 291 -105 42 -311 72 -612 89 -187 11 -197 11 -358 -1z"/>
<path d="M7120 7488 c0 -3 15 -39 33 -80 18 -40 39 -93 46 -118 8 -25 33 -97
56 -160 73 -197 107 -337 145 -590 6 -41 15 -100 20 -130 5 -30 12 -131 15
-225 3 -93 8 -192 10 -220 6 -54 -18 -412 -34 -510 -5 -33 -14 -94 -20 -135
-31 -220 -118 -554 -180 -692 -10 -24 -26 -63 -36 -88 -24 -64 -104 -212 -171
-317 -19 -29 -34 -56 -34 -59 0 -19 -267 -365 -347 -450 -48 -51 -157 -147
-243 -215 -79 -62 -138 -99 -238 -149 -53 -27 -113 -58 -132 -69 -58 -32 -102
-49 -236 -91 -71 -23 -139 -45 -152 -50 -13 -6 -37 -10 -54 -10 -17 0 -29 -3
-25 -6 10 -10 505 -5 570 6 225 37 484 110 642 180 22 10 58 26 80 35 62 27
313 152 375 186 339 190 684 534 892 889 51 88 93 181 141 311 93 255 111 320
151 534 24 134 33 197 56 401 13 114 13 567 0 648 -5 34 -16 122 -25 196 -18
148 -27 195 -57 285 -25 74 -120 258 -156 301 -34 39 -49 59 -86 109 -16 22
-59 73 -95 114 -36 40 -76 85 -88 100 -11 14 -24 23 -28 19 -4 -3 19 -82 51
-175 31 -92 60 -181 65 -198 4 -16 19 -75 33 -130 28 -105 58 -282 81 -480 23
-189 16 -908 -8 -855 -3 8 -25 87 -48 175 -56 220 -53 209 -92 320 -59 169
-96 254 -179 420 -91 181 -133 258 -159 297 -11 14 -19 29 -19 33 0 4 -43 69
-95 144 -94 136 -139 191 -284 350 -42 46 -90 100 -108 120 -18 20 -32 33 -33
29z"/>
<path d="M3985 7065 c-149 -14 -201 -24 -375 -70 -164 -44 -299 -92 -380 -134
-36 -19 -123 -64 -195 -99 -153 -76 -242 -136 -425 -286 -445 -366 -569 -565
-642 -1026 -16 -107 -16 -541 1 -695 12 -101 50 -299 72 -370 5 -16 25 -86 45
-155 99 -347 194 -564 365 -839 59 -95 196 -288 252 -356 49 -59 291 -296 330
-324 20 -14 20 -14 0 25 -63 121 -120 255 -169 398 -30 89 -59 170 -64 181
-22 48 -84 301 -101 410 -51 329 -54 840 -8 1140 23 149 68 341 115 495 57
183 91 261 201 460 95 173 139 242 226 360 89 119 106 138 247 283 265 274
550 464 825 551 204 66 204 63 -5 64 -102 0 -243 -6 -315 -13z"/>
<path d="M3130 4320 c0 -66 12 -211 31 -377 9 -82 35 -199 83 -376 18 -65 78
-231 107 -294 10 -24 19 -45 19 -48 0 -11 106 -219 155 -305 178 -314 443
-642 632 -786 39 -30 74 -54 76 -54 3 0 31 -16 62 -35 100 -60 267 -107 455
-129 199 -22 350 -19 615 14 285 35 320 42 540 99 66 18 134 36 150 41 94 30
186 63 225 81 25 12 54 25 65 29 54 22 228 109 293 147 41 24 76 43 78 43 12
0 269 175 329 224 124 103 266 238 334 321 88 106 156 204 147 212 -4 4 -10 3
-14 -3 -17 -26 -270 -174 -297 -174 -3 0 -44 -18 -91 -40 -539 -255 -1296
-348 -1864 -229 -58 12 -118 23 -135 26 -47 6 -114 23 -190 48 -38 13 -136 44
-217 70 -87 27 -196 71 -264 106 -125 63 -357 199 -362 211 -2 5 -8 8 -14 8
-26 0 -232 163 -339 270 -108 106 -267 292 -351 411 -70 98 -155 271 -219 449
l-38 105 -1 -65z"/>
</g>
</svg>
